<svg width="100" height="100" viewBox="0 0 100 100" fill="none" xmlns="http://www.w3.org/2000/svg">
<g clip-path="url(#clip0_371_11819)">
<rect width="100" height="100" fill="white"/>
<path d="M44.4711 51.873H56.2009C57.8273 51.873 59.0594 51.413 59.9136 50.5259C60.7679 49.6224 61.1786 48.4067 61.1786 46.8624C61.1786 44.5296 60.2258 42.9196 58.3365 42.0161C57.6794 41.7204 56.8744 41.5725 55.938 41.5725H44.3561C41.8918 41.5725 40.2819 42.6239 39.5426 44.7267C39.3455 45.3346 39.2305 45.9753 39.2305 46.616C39.2305 48.1767 39.6576 49.4416 40.5119 50.4109C41.3661 51.3802 42.6968 51.873 44.4711 51.873Z" fill="#fff"/>
<path d="M64.6127 60.8588C62.0828 60.7273 57.7621 60.6616 53.2936 60.6616C48.8252 60.6616 45.8516 60.6616 44.3731 60.6781C42.8946 60.6945 41.6953 60.7109 40.7917 60.7273C38.1304 60.793 32.4133 61.0559 31.8712 61.483C31.3126 61.9266 30.9512 63.1587 30.7705 63.5366C38.6396 63.5366 47.1988 63.668 48.283 63.9473C49.1866 64.2594 50.2216 66.2472 50.2216 66.2472C50.2216 66.2472 51.273 64.128 51.9465 63.9473C53.0308 63.6844 57.8114 63.5366 64.662 63.5366H69.0648C68.6376 62.403 67.1591 60.9738 64.6291 60.8588H64.6127Z" fill="#fff"/>
<path d="M0 -0.0568848V100.057H100.114V-0.0568848H0ZM77.8864 60.5634C77.8864 62.0255 77.5249 63.3398 76.8021 64.4897C77.5249 65.6397 77.8864 68.3504 77.8864 69.3361C77.8864 70.3218 77.8042 71.1267 77.6399 71.751C77.4756 72.3753 77.2457 72.9339 76.9499 73.4103C76.3585 74.3795 75.6357 74.8724 74.7486 74.8724C74.2886 74.8724 73.8943 74.7574 73.5657 74.4945C73.9436 74.0017 74.1407 73.361 74.1407 72.5889C74.1407 70.5846 73.2864 67.5454 71.5615 66.7897H54.9854C53.9504 66.7897 52.6361 68.9254 52.324 69.3525C51.6997 70.2232 51.1083 70.9789 50.2047 72.556C49.4983 71.0117 48.6441 69.6646 48.0526 68.9418C47.3134 68.0382 46.4591 66.7897 45.3584 66.7897H28.6016C26.8602 67.5618 25.9895 70.5846 25.9895 72.5889C25.9895 73.361 26.1866 73.9853 26.5645 74.4945C26.2195 74.741 25.8416 74.8724 25.3981 74.8724C24.9545 74.8724 24.5438 74.741 24.166 74.4781C23.7881 74.2153 23.4595 73.8703 23.1803 73.4103C22.5396 72.3753 22.2274 71.176 22.2274 69.8289C22.2274 68.4818 22.6053 65.6068 23.3446 64.4733C22.6053 63.2905 22.2274 61.9926 22.2274 60.5469C22.2274 59.1013 22.6053 55.3392 23.3446 54.1564C22.6053 53.0228 22.2274 51.9714 22.2274 50.9693C22.2274 49.9672 22.3096 49.1622 22.4739 48.5215C22.6381 47.8972 22.8681 47.3386 23.1638 46.8622C23.7553 45.8929 24.4781 45.4001 25.3652 45.4001C25.8088 45.4001 26.2195 45.5151 26.5481 45.7779C26.1702 46.2708 25.9731 46.9115 25.9731 47.6836C25.9731 49.425 26.7781 50.805 28.4045 51.8564H38.0807C38.0807 51.8564 38.1464 51.8071 38.1136 51.7743C33.6286 48.045 35.3207 40.1266 35.3207 40.1266C35.7643 38.1388 36.4379 36.3646 37.3743 34.8039C39.3128 31.5511 42.2042 29.399 46.0155 28.3311C47.5762 27.8711 48.8576 26.8033 49.8433 25.1112C50.8126 26.8526 52.2747 28.019 54.2461 28.594C56.2175 29.1854 57.9425 30.1218 59.4539 31.4197C60.9488 32.7175 62.1645 34.196 63.1009 35.8717C63.7909 37.1038 64.333 38.4181 64.7438 39.8309C64.7438 39.8309 67.0601 47.4536 61.9181 51.7578C61.8852 51.7907 61.9017 51.84 61.9345 51.84H71.3808C72.1693 51.3143 72.8265 50.6736 73.3357 49.9014C73.845 49.1293 74.0914 48.3736 74.0914 47.6343C74.0914 46.8951 73.8943 46.2708 73.5164 45.7779C73.8614 45.5315 74.2393 45.4001 74.6828 45.4001C75.1264 45.4001 75.5371 45.5315 75.915 45.7944C76.2928 46.0572 76.6214 46.4022 76.9007 46.8622C77.5249 47.8972 77.8535 49.08 77.8535 50.4271C77.8535 51.7743 77.4921 53.0064 76.7692 54.1564C77.4921 55.3063 77.8535 59.0848 77.8535 60.5469L77.8864 60.5634Z" fill="#fff"/>
<path d="M59.6842 39.354C59.6842 39.354 57.6963 37.0212 54.3943 36.4462C52.1107 36.0191 50.1886 33.4563 50.1886 33.4563C50.1886 33.4563 48.4144 35.9698 46.4266 36.3312C43.0752 36.9391 41.0381 39.354 41.0381 39.354C41.0381 39.354 45.4244 38.4669 50.1886 38.4669C54.9528 38.4669 59.6842 39.354 59.6842 39.354Z" fill="#fff"/>
</g>
<defs>
<clipPath id="clip0_371_11819">
<rect width="100" height="100" fill="white"/>
</clipPath>
</defs>
</svg>
