<svg width="297" height="50" viewBox="0 0 297 50" fill="none" xmlns="http://www.w3.org/2000/svg">
<path d="M9.69666 30.933C9.01522 31.3687 8.25558 31.581 7.41773 31.581C6.57989 31.581 5.82025 31.3687 5.14998 30.9554C4.47971 31.3687 3.86529 31.581 3.29555 31.581C2.72582 31.581 2.25663 31.5363 1.89915 31.4358C1.54167 31.3352 1.21771 31.2012 0.938427 31.0336C0.379866 30.6984 0.100586 30.2739 0.100586 29.7601C0.100586 29.5031 0.167616 29.2685 0.312842 29.0786C0.603293 29.302 0.960767 29.4138 1.40762 29.4138C2.56942 29.4138 3.37375 28.9222 3.8206 27.928V18.3431C3.8206 17.7398 3.69772 17.293 3.45195 17.0137C3.06096 16.5334 2.39069 16.053 1.42996 15.5838C2.32366 15.1816 2.89339 14.8242 3.15033 14.5114C3.59718 13.9975 3.8206 13.4278 3.8206 12.791V4.5243C3.37375 3.51889 2.56942 3.01619 1.40762 3.01619C0.960767 3.01619 0.592122 3.1279 0.312842 3.35132C0.167616 3.15024 0.100586 2.92682 0.100586 2.66988C0.100586 2.41294 0.178781 2.17835 0.324007 1.95492C0.469233 1.7315 0.681489 1.54159 0.938427 1.38519C1.54167 1.01654 2.23429 0.837801 3.0051 0.837801C3.77591 0.837801 4.50205 1.05005 5.14998 1.48573C5.83142 1.05005 6.57989 0.837801 7.41773 0.837801C8.25558 0.837801 8.99287 1.05005 9.66314 1.46339C10.959 0.915999 12.4224 0.636719 14.0423 0.636719C15.6621 0.636719 17.0808 0.82663 18.265 1.20645C19.4491 1.58627 20.5216 2.11132 21.4823 2.79276C23.4708 4.20034 24.7778 6.06593 25.4257 8.37837C25.6827 9.28324 26.3083 10.0205 27.2913 10.5903C26.2859 11.1488 25.6156 11.9978 25.2693 13.1373C24.923 14.2768 24.3645 15.3269 23.5713 16.2988C22.7782 17.2707 21.8733 18.0862 20.8567 18.7341C18.7789 20.0635 16.567 20.7337 14.2322 20.7337C13.2156 20.7337 12.1432 20.5997 11.0372 20.3427V27.8274C11.3947 28.5871 12.1096 29.0786 13.2156 29.3132C13.506 29.3802 13.8188 29.4138 14.1763 29.4138C14.5338 29.4138 14.8466 29.302 15.137 29.0786C15.2823 29.2797 15.3493 29.5031 15.3493 29.7601C15.3493 30.017 15.2599 30.2516 15.07 30.475C14.8801 30.6984 14.6343 30.8884 14.3104 31.0448C13.6178 31.4134 12.8581 31.5921 12.0314 31.5921C11.2048 31.5921 10.434 31.3799 9.69666 30.9442V30.933ZM5.69737 25.9954C6.3453 25.7496 6.71395 24.8894 6.7698 23.426C6.848 21.9626 6.89269 19.9406 6.89269 17.3489C6.89269 14.7571 6.89269 13.0368 6.89269 12.1878C6.89269 11.3387 6.88152 10.6461 6.85917 10.1211C6.81449 8.57945 6.66926 7.65224 6.4235 7.32827C6.17773 7.00431 5.93196 6.79206 5.70854 6.69152C5.70854 11.2382 5.63033 13.8299 5.47394 14.4555C5.2952 14.9806 4.84835 15.3492 4.14457 15.5726C4.92655 15.8519 5.3734 16.1759 5.47394 16.5669C5.63033 17.1925 5.70854 19.4826 5.70854 23.4483V25.9954H5.69737ZM11.026 15.2151C11.026 16.1088 11.35 16.8126 12.0091 17.3489C12.6123 17.8404 13.3832 18.0973 14.3215 18.0973C15.7626 18.0973 16.8016 17.5499 17.4383 16.4552C17.6617 16.0753 17.7734 15.6173 17.7734 15.0588V6.19998C17.7734 5.2616 17.416 4.5243 16.701 3.98808C16.0531 3.49655 15.394 3.23961 14.746 3.23961C14.0981 3.23961 13.5731 3.30664 13.1597 3.42952C12.7464 3.55241 12.3889 3.74232 12.0761 3.98808C11.3835 4.53547 11.0372 5.30629 11.0372 6.27818V15.2151H11.026ZM19.047 17.2371C19.3486 17.1813 19.6614 16.8238 19.9742 16.1424C20.287 15.4609 20.5327 14.6678 20.7003 13.7406C20.8679 12.8133 21.069 12.1431 21.3147 11.7074C21.5605 11.2717 21.9626 10.9589 22.51 10.7802C21.6052 10.4786 21.0354 9.67423 20.8008 8.37837C20.5662 7.08251 20.287 6.12178 19.963 5.50737C19.639 4.89295 19.3374 4.55781 19.0358 4.51313C19.5162 5.59674 19.7619 7.68575 19.7619 10.7802C19.7619 12.8469 19.6614 14.3997 19.4491 15.4497C19.2369 16.4998 19.1028 17.0919 19.0358 17.2483L19.047 17.2371Z" fill="#fff"/>
<path d="M26.9672 31.056C26.4868 31.4134 25.9283 31.581 25.3139 31.581C24.6994 31.581 24.1967 31.4246 23.8281 31.1006C23.4594 30.7767 23.2695 30.408 23.2695 29.9947C23.2695 29.5814 23.3366 29.2686 23.4706 29.0787C23.8504 29.3021 24.3196 29.4138 24.867 29.4138C25.4144 29.4138 25.8389 29.3356 26.1182 29.1904C26.3975 29.0451 26.6656 28.8329 26.9337 28.576L29.7153 20.3204L30.1063 18.9687C30.2292 18.5665 30.2851 18.1867 30.2851 17.8516C30.2851 16.6674 29.7265 15.9078 28.5982 15.5727C29.626 15.1817 30.3521 14.7572 30.7766 14.2991C31.4245 13.5842 31.9496 12.6346 32.3294 11.4617L34.4854 4.23388C34.0721 3.67532 33.5694 3.39604 32.9997 3.39604C32.4299 3.39604 31.8937 3.51892 31.391 3.76469C31.257 3.53009 31.1899 3.26198 31.1899 2.97153C31.1899 2.68108 31.257 2.4018 31.3798 2.13369C31.5027 1.86558 31.6815 1.64216 31.8937 1.45225C32.3852 1.03891 33.1002 0.82666 34.0051 0.82666C34.9099 0.82666 35.6919 1.10594 36.3399 1.65333C36.9878 1.10594 37.8033 0.82666 38.7752 0.82666C39.7471 0.82666 40.5179 1.0836 41.0988 1.60864C41.9366 1.0836 42.7856 0.82666 43.6458 0.82666C44.506 0.82666 45.1763 0.994228 45.6566 1.31819C46.137 1.64216 46.3716 2.08901 46.3716 2.64757C46.3716 2.90451 46.2934 3.1391 46.137 3.32901C45.8354 3.10559 45.4891 2.99388 45.0757 2.99388C44.2044 2.99388 43.6347 3.58595 43.3666 4.78127L45.8801 12.8022C46.1929 13.8076 46.9749 14.5896 48.2372 15.1593C48.5947 15.3157 48.9522 15.4609 49.3096 15.595C48.0026 16.0307 47.3547 16.6674 47.3547 17.5388C47.3547 17.8628 47.4105 18.1532 47.5111 18.399L51.2534 28.4307C51.8232 29.034 52.4152 29.3356 52.9961 29.3356C53.577 29.3356 54.0462 29.2239 54.3702 29.0005C54.5154 29.101 54.5824 29.3021 54.5824 29.5925C54.5824 29.883 54.5378 30.1399 54.4484 30.3857C54.359 30.6315 54.2138 30.8437 54.0127 31.0225C53.5994 31.4134 52.985 31.6145 52.1695 31.6145C51.354 31.6145 50.6502 31.3911 50.0581 30.9443C49.3767 31.3911 48.6058 31.6145 47.7568 31.6145C46.9078 31.6145 46.1705 31.4023 45.5561 30.9666C44.964 31.4023 44.2714 31.6145 43.4783 31.6145C42.6851 31.6145 42.026 31.447 41.501 31.1118C40.9759 30.7767 40.7078 30.3075 40.6743 29.6931C40.6743 29.3244 40.7413 29.101 40.8865 29.0116C41.244 29.2351 41.6015 29.3468 41.959 29.3468C42.7298 29.3468 43.2772 29.1904 43.59 28.8776L42.1042 23.884H31.5027L30.2069 28.2185C30.7431 29.0451 31.391 29.4585 32.1618 29.4585C32.9326 29.4585 33.5024 29.3468 33.8822 29.1233C34.0274 29.3579 34.0944 29.6819 34.0944 30.0952C34.0944 30.5086 33.8934 30.8661 33.4912 31.1677C33.089 31.4693 32.564 31.6257 31.9272 31.6257C31.2905 31.6257 30.6984 31.4581 30.1622 31.1342C29.693 31.4581 29.1568 31.6257 28.5423 31.6257C27.9279 31.6257 27.4141 31.447 26.9895 31.1006L26.9672 31.056ZM41.2999 21.1918L36.7532 6.07713L32.2847 21.1918H41.2999ZM45.0422 25.9954C45.2768 25.9954 45.3997 25.7385 45.3997 25.2134C45.3997 24.2974 45.2657 23.4149 44.9864 22.5435L44.2379 20.2534C43.7129 18.533 43.4559 17.4494 43.4559 17.0026C43.4447 16.2653 43.7575 15.7849 44.4166 15.5503C43.5118 15.3716 42.9644 15.0811 42.7745 14.7125C42.6851 14.5561 42.6069 14.4332 42.551 14.3438C42.4952 14.2545 42.4282 14.1427 42.3723 14.0199C42.3165 13.897 42.2494 13.7406 42.1712 13.5395C42.093 13.3384 41.9925 13.0591 41.8584 12.7017L40.6408 9.0375C40.3503 8.12146 39.9258 7.42885 39.3673 6.95966C39.1997 6.81443 39.0433 6.73623 38.8981 6.70272C39.7694 9.86417 40.3503 11.8862 40.6184 12.7799C42.5175 18.6112 43.6458 22.0631 44.0256 23.1467L45.0422 26.0066V25.9954Z" fill="#fff"/>
<path d="M66.8152 30.9554C66.145 31.3688 65.3965 31.581 64.5363 31.581C63.6761 31.581 62.9277 31.3688 62.2574 30.9554C61.5871 31.3688 60.9727 31.581 60.403 31.581C59.8332 31.581 59.3641 31.5364 59.0066 31.4358C58.6491 31.3353 58.3251 31.2012 58.0458 31.0336C57.4873 30.6985 57.208 30.274 57.208 29.7601C57.208 29.5032 57.275 29.2686 57.4203 29.0787C57.7107 29.3021 58.0682 29.4138 58.515 29.4138C59.6768 29.4138 60.4812 28.9223 60.928 27.928V18.3431C60.928 17.7399 60.8051 17.2931 60.5594 17.0138C60.1684 16.5334 59.4981 16.053 58.5374 15.5839C59.4311 15.1817 60.0008 14.8242 60.2578 14.5114C60.7046 13.9975 60.928 13.4278 60.928 12.7911V4.52436C60.4812 3.51895 59.6768 3.01625 58.515 3.01625C58.0682 3.01625 57.6995 3.12796 57.4203 3.35138C57.275 3.1503 57.208 2.92688 57.208 2.66994C57.208 2.413 57.2862 2.17841 57.4314 1.95498C57.5767 1.73156 57.7889 1.54165 58.0458 1.38525C58.6491 1.0166 59.3417 0.83786 60.1125 0.83786C60.8833 0.83786 61.6095 1.05011 62.2574 1.48579C62.9388 1.05011 63.6985 0.83786 64.5363 0.83786C65.3742 0.83786 66.1338 1.05011 66.8152 1.48579C68.2898 0.92723 69.932 0.647949 71.7306 0.647949C73.5291 0.647949 75.0373 0.815517 76.2438 1.13948C77.4502 1.46345 78.5003 1.93264 79.3829 2.53588C81.1479 3.75355 82.2427 5.4404 82.6784 7.60761C82.8459 8.57951 83.4715 9.30564 84.544 9.80834C83.5274 10.3781 82.8571 11.2941 82.5443 12.5565C81.9076 15.1482 80.2989 16.7568 77.7407 17.3936C79.0589 17.7511 80.1425 18.466 80.9692 19.572C81.8294 20.7114 82.265 22.052 82.265 23.5936V25.5486C82.265 27.4253 82.8683 28.643 84.086 29.1904C84.4546 29.358 84.8456 29.4473 85.2813 29.4473C85.7169 29.4473 86.0744 29.3356 86.3537 29.1122C86.4989 29.3133 86.5659 29.5367 86.5659 29.7936C86.5659 30.0506 86.4989 30.2852 86.3649 30.5086C86.2308 30.732 86.0632 30.9219 85.8398 31.0783C85.3706 31.447 84.8232 31.6257 84.1977 31.6257C83.5721 31.6257 82.9577 31.4582 82.3544 31.1118C81.2596 31.7151 80.2319 31.7709 79.2823 31.2906C78.9137 31.514 78.5338 31.6257 78.1205 31.6257C77.7072 31.6257 77.3274 31.5364 76.9587 31.3464C76.5901 31.1565 76.2549 30.8661 75.9645 30.4416C75.3501 29.5367 75.0484 28.1515 75.0484 26.2859V24.8336C75.0484 21.8174 74.1883 19.8513 72.4567 18.9576C71.887 18.6559 71.2055 18.5107 70.4347 18.5107H68.1446V28.0509C68.5021 28.9781 69.1724 29.4473 70.1666 29.4473C70.6135 29.4473 70.9821 29.3356 71.2614 29.1122C71.4066 29.3133 71.4736 29.5926 71.4736 29.9724C71.4736 30.3522 71.2726 30.7209 70.8592 31.0783C70.4459 31.4358 69.8315 31.6145 69.0048 31.6145C68.1781 31.6145 67.452 31.4023 66.8041 30.989L66.8152 30.9554ZM62.816 25.9954C63.4639 25.7497 63.8325 24.8895 63.8884 23.4261C63.9666 21.9626 64.0113 19.9406 64.0113 17.3489C64.0113 14.7572 64.0113 13.0368 64.0113 12.1878C64.0113 11.3388 64.0001 10.6462 63.9778 10.1211C63.9331 8.57951 63.7878 7.6523 63.5421 7.32833C63.2963 7.00437 63.0505 6.79212 62.8271 6.69157C62.8271 11.2383 62.7489 13.83 62.5925 14.4556C62.4138 14.9806 61.9669 15.3493 61.2632 15.5727C62.0451 15.852 62.492 16.1759 62.5925 16.5669C62.7489 17.1925 62.8271 19.4826 62.8271 23.4484V25.9954H62.816ZM71.9093 3.21733C69.3958 3.21733 68.1446 4.18922 68.1446 6.13301V14.1539C68.1446 14.8354 68.4127 15.2934 68.949 15.528C69.4628 15.7514 70.2113 15.8631 71.2167 15.8631C72.2221 15.8631 72.9147 15.8073 73.3169 15.6956C73.7191 15.5839 74.0542 15.3939 74.3447 15.1147C74.9367 14.5561 75.2272 13.6066 75.2272 12.2884V6.56869C75.2272 4.93769 74.5457 3.8876 73.194 3.42958C72.7919 3.28436 72.3673 3.21733 71.9205 3.21733H71.9093ZM76.3443 20.6221C76.8693 21.2141 77.1263 21.9291 77.1263 22.7781V25.3698C77.1263 27.5371 77.562 28.6989 78.4221 28.8441C78.6567 28.8888 78.8913 28.8776 79.1036 28.8217C78.6344 28.0844 78.3998 27.3136 78.3998 26.5093V23.7612C78.3998 22.7334 78.2546 21.9961 77.9641 21.5605C77.4726 20.8232 76.9252 20.5104 76.3331 20.6221H76.3443ZM76.5454 4.4685C76.9475 5.38454 77.1486 6.84797 77.1486 8.85879C77.1486 12.3219 76.9811 14.3885 76.6571 15.07C77.372 14.9248 77.8971 13.964 78.2099 12.1878L78.3663 11.3835C78.5115 10.5345 78.9249 9.98708 79.6175 9.75249C79.1036 9.58492 78.7796 9.38384 78.6344 9.14924C78.478 8.86996 78.3328 8.41194 78.2099 7.75284C78.087 7.09374 77.953 6.55752 77.8301 6.15536C77.7072 5.75319 77.562 5.42923 77.4167 5.19463C77.171 4.7813 76.8693 4.53553 76.5342 4.4685H76.5454Z" fill="#fff"/>
<path d="M103.255 30.9331C102.574 31.3688 101.825 31.581 100.988 31.581C100.15 31.581 99.3901 31.3688 98.6863 30.9331C97.9714 31.3688 97.3123 31.581 96.709 31.581C96.1058 31.581 95.6254 31.5363 95.2568 31.4358C94.8881 31.3352 94.5753 31.2012 94.2961 31.0336C93.7375 30.6985 93.4582 30.274 93.4582 29.7601C93.4582 29.5032 93.5252 29.2686 93.6705 29.0787C93.9609 29.3021 94.3407 29.4138 94.8211 29.4138C95.3014 29.4138 95.7818 29.2909 96.2733 29.0452C96.7649 28.7994 97.1335 28.4084 97.3793 27.8833V18.3431C97.3793 17.7399 97.2564 17.293 97.0107 17.0138C96.6197 16.5334 95.9494 16.053 94.9887 15.5838C95.8824 15.1817 96.4521 14.8242 96.709 14.5114C97.1559 13.9975 97.3793 13.4278 97.3793 12.791V3.67533C96.9436 3.51893 96.4297 3.44073 95.8377 3.44073C95.2456 3.44073 94.62 3.59713 93.9609 3.90992C93.3018 4.22272 92.7209 4.68074 92.1959 5.28398C91.0341 6.64687 90.4532 8.42309 90.4532 10.6127C90.4532 11.875 90.6654 12.8134 91.0787 13.4166C90.9223 13.7406 90.6319 13.9082 90.1962 13.9082C89.7605 13.9082 89.3807 13.8076 89.0344 13.6177C88.6881 13.4278 88.3977 13.1485 88.1519 12.8134C87.638 12.1319 87.3922 11.4058 87.3922 10.6127C87.3922 9.8195 87.5375 9.16039 87.8279 8.613C87.3476 8.04327 87.1018 7.38417 87.1018 6.65804C87.1018 5.93191 87.3029 5.33984 87.6939 4.85948C87.1465 4.2674 86.8672 3.48542 86.8672 2.49118C86.8672 1.34054 87.3922 0.569732 88.4535 0.178739C88.7663 0.0558559 89.0456 0 89.2802 0C89.727 0 90.0622 0.10054 90.2744 0.290451C90.185 0.603245 90.1404 0.826669 90.1404 0.960724C90.1404 1.48577 90.3191 1.74271 90.6877 1.74271C90.8888 1.74271 91.0899 1.72037 91.291 1.66451L92.1735 1.40757C93.704 1.00541 94.9775 0.804327 95.9941 0.804327C97.0106 0.804327 97.9044 1.02775 98.6752 1.4746C99.3454 1.02775 100.094 0.804327 100.954 0.804327C101.814 0.804327 102.574 1.02775 103.267 1.4746C104.015 1.02775 104.786 0.804327 105.579 0.804327C106.841 0.804327 107.958 0.938381 108.908 1.19532L110.651 1.66451C110.863 1.72037 111.064 1.74271 111.254 1.74271C111.623 1.74271 111.801 1.48577 111.801 0.960724C111.801 0.826669 111.757 0.603245 111.667 0.290451C111.891 0.0893689 112.17 0 112.505 0C112.84 0 113.175 0.0558559 113.488 0.178739C113.801 0.301623 114.08 0.469191 114.315 0.692615C114.829 1.15063 115.075 1.80974 115.075 2.65875C115.075 3.50776 114.795 4.24506 114.248 4.85948C114.639 5.32867 114.84 5.92074 114.84 6.64687C114.84 7.373 114.594 8.02093 114.091 8.60183C114.393 9.13805 114.538 9.67427 114.538 10.2105C114.538 10.7467 114.471 11.2271 114.337 11.6627C114.203 12.0984 114.013 12.4782 113.767 12.8022C113.231 13.5395 112.561 13.897 111.745 13.897C111.299 13.897 110.997 13.7294 110.841 13.4055C111.254 12.8022 111.466 11.8973 111.466 10.6908C111.466 9.48436 111.31 8.43427 110.986 7.54057C110.662 6.64687 110.249 5.88723 109.723 5.27281C108.662 4.04398 107.422 3.42956 105.981 3.42956C105.434 3.42956 104.953 3.50776 104.551 3.66416V12.7575C104.551 13.3943 104.685 13.8746 104.965 14.1874C105.4 14.7013 106.059 15.1593 106.942 15.5615C105.992 16.0307 105.378 16.4217 105.121 16.7233C104.741 17.1925 104.551 17.7287 104.551 18.332V27.8722C104.786 28.3972 105.154 28.777 105.635 29.034C106.115 29.2909 106.607 29.4026 107.098 29.4026C107.59 29.4026 107.97 29.2909 108.26 29.0675C108.405 29.2686 108.472 29.492 108.472 29.7489C108.472 30.0059 108.394 30.2405 108.249 30.4639C108.104 30.6873 107.891 30.8772 107.634 31.0336C107.031 31.4023 106.327 31.581 105.523 31.581C104.719 31.581 103.948 31.3688 103.222 30.9331H103.255ZM99.2561 25.9954C99.904 25.7496 100.273 24.8895 100.329 23.426C100.407 21.9626 100.451 19.9406 100.451 17.3489C100.451 14.7572 100.451 13.0368 100.451 12.1878C100.451 11.3388 100.44 10.6462 100.418 10.1211C100.373 8.57949 100.228 7.65228 99.9822 7.32831C99.7364 7.00435 99.4907 6.7921 99.2672 6.69156C99.2672 11.2382 99.189 13.83 99.0326 14.4555C98.8539 14.9806 98.407 15.3492 97.7033 15.5727C98.4852 15.852 98.9321 16.1759 99.0326 16.5669C99.189 17.1925 99.2672 19.4826 99.2672 23.4484V25.9954H99.2561Z" fill="#fff"/>
<path d="M127.308 30.9776C126.66 31.3798 125.911 31.5809 125.096 31.5809C124.28 31.5809 123.565 31.3686 122.985 30.9553C122.314 31.3686 121.7 31.5809 121.141 31.5809C120.583 31.5809 120.114 31.5362 119.745 31.4357C119.376 31.3351 119.063 31.2011 118.806 31.0335C118.237 30.6984 117.946 30.2739 117.946 29.76C117.946 29.503 118.013 29.2685 118.159 29.0785C118.449 29.302 118.806 29.4137 119.253 29.4137C120.415 29.4137 121.219 28.9221 121.666 27.9279V18.343C121.666 17.3264 121.152 16.5556 120.136 16.0306L119.276 15.5837C120.437 15.0475 121.175 14.4666 121.476 13.841C121.61 13.5506 121.677 13.2042 121.677 12.7797V4.51304C121.231 3.50763 120.426 3.00493 119.264 3.00493C118.818 3.00493 118.449 3.11664 118.17 3.34007C118.024 3.13898 117.957 2.91556 117.957 2.65862C117.957 2.40168 118.036 2.16709 118.181 1.94366C118.326 1.72024 118.538 1.53033 118.818 1.37393C119.41 1.00528 120.08 0.826542 120.851 0.826542C121.622 0.826542 122.325 1.03879 122.996 1.45213C123.588 1.03879 124.292 0.826542 125.118 0.826542C125.945 0.826542 126.682 1.03879 127.319 1.45213C127.933 1.03879 128.615 0.826542 129.374 0.826542C130.48 0.826542 131.274 1.19519 131.743 1.94366C131.899 2.17826 131.977 2.42403 131.977 2.69213C131.977 2.96024 131.899 3.1725 131.743 3.34007C131.452 3.11664 131.095 3.00493 130.67 3.00493C129.665 3.00493 128.995 3.49646 128.648 4.47953V14.8241H137.92V4.45719C137.585 3.47412 136.904 2.98259 135.898 2.98259C135.463 2.98259 135.105 3.0943 134.826 3.31772C134.67 3.15015 134.591 2.92673 134.591 2.66979C134.591 2.41285 134.67 2.15592 134.815 1.92132C134.96 1.68673 135.161 1.48564 135.396 1.31808C135.887 0.982939 136.491 0.804199 137.194 0.804199C137.954 0.804199 138.635 1.01645 139.25 1.42979C139.92 1.01645 140.657 0.804199 141.473 0.804199C142.288 0.804199 142.992 1.01645 143.584 1.42979C144.221 1.01645 144.835 0.804199 145.405 0.804199C145.975 0.804199 146.455 0.848884 146.813 0.949425C147.17 1.04997 147.494 1.18402 147.773 1.35159C148.332 1.68673 148.611 2.11123 148.611 2.62511C148.611 2.88205 148.544 3.11664 148.399 3.30655C148.109 3.08313 147.751 2.97142 147.304 2.97142C146.142 2.97142 145.338 3.47412 144.891 4.47953V12.7462C144.891 13.7628 145.394 14.556 146.399 15.1145C146.69 15.2709 146.98 15.4161 147.282 15.5502C146.5 15.93 145.964 16.2316 145.696 16.4662C145.159 16.9578 144.891 17.5722 144.891 18.3095V27.8944C145.338 28.8886 146.142 29.3802 147.304 29.3802C147.751 29.3802 148.12 29.2685 148.399 29.045C148.544 29.2461 148.611 29.4695 148.611 29.7265C148.611 29.9834 148.533 30.218 148.388 30.4414C148.243 30.6649 148.03 30.8548 147.773 31.0112C147.17 31.3798 146.478 31.5586 145.707 31.5586C144.936 31.5586 144.221 31.3463 143.584 30.933C142.992 31.3463 142.288 31.5586 141.473 31.5586C140.657 31.5586 139.92 31.3463 139.25 30.933C138.635 31.3463 137.954 31.5586 137.194 31.5586C136.088 31.5586 135.284 31.1899 134.804 30.4414C134.658 30.2068 134.591 29.9611 134.591 29.693C134.591 29.4248 134.67 29.2126 134.826 29.045C135.116 29.2685 135.474 29.3802 135.898 29.3802C136.904 29.3802 137.574 28.8886 137.92 27.9056V17.5722H128.648V27.9056C128.983 28.8886 129.665 29.3802 130.67 29.3802C131.106 29.3802 131.463 29.2685 131.743 29.045C131.899 29.2126 131.977 29.436 131.977 29.693C131.977 29.9499 131.899 30.2068 131.754 30.4414C131.609 30.676 131.408 30.8771 131.151 31.0447C130.681 31.3798 130.089 31.5586 129.363 31.5586C128.637 31.5586 127.933 31.3575 127.308 30.9553V30.9776ZM123.543 25.9953C124.169 25.7495 124.526 24.8893 124.604 23.4259C124.671 21.9625 124.705 19.9405 124.705 17.3488C124.705 14.757 124.705 13.0367 124.705 12.1877C124.705 11.3387 124.694 10.646 124.671 10.121C124.627 8.59054 124.493 7.66332 124.247 7.33936C124.001 7.01539 123.778 6.79197 123.554 6.69143C123.554 11.2381 123.476 13.8298 123.32 14.4554C123.141 14.9805 122.694 15.3491 121.99 15.5725C122.772 15.8518 123.219 16.1758 123.32 16.5668C123.476 17.1924 123.554 19.4825 123.554 23.4482V25.9953H123.543ZM139.54 11.361C139.529 12.7686 139.518 15.0922 139.518 18.3318C139.518 21.5715 139.563 23.4818 139.652 24.0515C139.82 25.1463 140.166 25.7942 140.669 25.9953V23.4482C140.669 19.974 140.691 18.0079 140.747 17.561C140.803 17.1142 140.847 16.7902 140.903 16.6115C141.026 16.1534 141.417 15.8071 142.098 15.5725C141.495 15.3938 141.104 15.014 140.903 14.4554C140.747 13.8298 140.669 11.2381 140.669 6.69143C140.155 6.92602 139.842 7.39522 139.73 8.099C139.607 8.86982 139.551 9.95342 139.529 11.361H139.54Z" fill="#fff"/>
<path d="M158.966 31.581C158.106 31.581 157.335 31.3687 156.676 30.9554C156.006 31.3687 155.392 31.581 154.822 31.581C154.252 31.581 153.783 31.5363 153.426 31.4358C153.068 31.3352 152.744 31.2012 152.465 31.0336C151.906 30.6985 151.627 30.274 151.627 29.7601C151.627 29.5031 151.694 29.2685 151.839 29.0786C152.13 29.3021 152.487 29.4138 152.934 29.4138C154.096 29.4138 154.9 28.9222 155.347 27.928V18.3431C155.347 17.7399 155.224 17.293 154.978 17.0137C154.587 16.5334 153.917 16.053 152.956 15.5838C153.85 15.1816 154.42 14.8242 154.677 14.5114C155.124 13.9975 155.347 13.4278 155.347 12.791V4.52431C154.9 3.5189 154.096 3.01619 152.934 3.01619C152.487 3.01619 152.118 3.1279 151.839 3.35133C151.694 3.15025 151.627 2.92682 151.627 2.66988C151.627 2.41295 151.705 2.17835 151.85 1.95493C151.996 1.7315 152.208 1.54159 152.465 1.38519C153.068 1.01654 153.761 0.837806 154.531 0.837806C155.302 0.837806 156.028 1.05006 156.676 1.48574C157.358 1.05006 158.129 0.837806 159.011 0.837806C159.894 0.837806 160.687 1.09474 161.402 1.59745C162.787 1.08357 164.384 0.837806 166.205 0.837806C167.546 0.837806 168.697 0.97186 169.657 1.2288L171.4 1.69799C171.612 1.75384 171.813 1.77619 172.003 1.77619C172.372 1.77619 172.551 1.51925 172.551 0.994202C172.551 0.860147 172.506 0.636724 172.417 0.32393C172.785 0.256902 173.243 0.223389 173.813 0.223389C174.383 0.223389 174.852 0.413299 175.243 0.781949C175.634 1.1506 175.835 1.68682 175.835 2.3906C175.835 3.09439 175.712 3.59709 175.466 3.93223C175.824 4.45728 175.991 5.09404 175.991 5.84251C175.991 6.59098 175.734 7.22774 175.232 7.73044C175.388 8.12144 175.466 8.50126 175.466 8.88108C175.466 9.2609 175.399 9.59604 175.276 9.89766C175.154 10.1993 174.997 10.4674 174.818 10.6685C174.45 11.0483 174.081 11.2382 173.701 11.2382C173.154 11.2382 172.651 11.1153 172.216 10.8807C172.372 10.5679 172.45 10.0987 172.45 9.48432C172.45 8.04324 172.093 6.78089 171.378 5.69728C170.395 4.21151 168.931 3.46304 166.965 3.46304C165.971 3.46304 165.077 3.70881 164.273 4.18917C163.468 4.66953 162.899 5.36215 162.575 6.26701V13.8523C163.033 14.1427 163.457 14.2879 163.859 14.2879C164.262 14.2879 164.563 14.2879 164.764 14.2656C164.965 14.2433 165.178 14.2209 165.379 14.1874C165.915 14.1092 166.328 14.0087 166.619 13.8746C167.166 13.6177 167.445 12.9697 167.445 11.9532C167.445 11.3834 167.311 10.9366 167.032 10.6238C167.289 10.445 167.624 10.3445 168.015 10.3445C168.886 10.3445 169.523 10.702 169.914 11.4058C170.059 11.6515 170.126 11.9308 170.126 12.2324C170.126 12.5341 170.048 12.9027 169.892 13.3496C170.428 13.964 170.696 14.6901 170.696 15.5391C170.696 16.3881 170.428 17.1143 169.892 17.7287C170.048 18.1755 170.126 18.5777 170.126 18.9352C170.126 19.2926 170.059 19.639 169.914 19.9629C169.769 20.2869 169.59 20.555 169.389 20.7449C168.987 21.1136 168.529 21.2923 168.015 21.2923C167.646 21.2923 167.323 21.1918 167.032 20.9795C167.311 20.5215 167.445 19.9853 167.445 19.3708C167.445 18.1532 167.11 17.4047 166.451 17.1143C165.859 16.8797 165.189 16.7568 164.429 16.7568C163.67 16.7568 163.055 16.8908 162.586 17.1701V26.9673C163.346 28.2966 164.809 28.9669 166.976 28.9669C169.434 28.9669 171.11 28.2073 171.992 26.688C173.02 24.9453 173.545 23.0909 173.545 21.1024C173.545 20.5327 173.489 20.0858 173.388 19.773C173.712 19.449 174.059 19.2815 174.405 19.2815C174.751 19.2815 175.031 19.3262 175.209 19.4267C175.388 19.5272 175.556 19.6501 175.701 19.7842C176.014 20.1417 176.17 20.4991 176.17 20.8566L176.047 21.8173C176.047 22.0631 176.114 22.2642 176.248 22.4206C176.505 22.6999 176.639 22.9568 176.639 23.1914C176.639 23.426 176.561 23.7276 176.405 24.0628C176.706 24.2303 176.974 24.4873 177.22 24.8224C177.466 25.1575 177.578 25.5038 177.578 25.8502C177.578 26.5986 177.265 27.2577 176.639 27.8498C176.919 28.2408 177.053 28.8105 177.053 29.5478C177.053 30.2851 176.84 30.9107 176.416 31.4246C175.991 31.9385 175.444 32.1954 174.763 32.1954C174.394 32.1954 174.014 32.1507 173.623 32.0725C173.679 31.7821 173.701 31.5028 173.701 31.2123C173.701 30.6091 173.422 30.3075 172.875 30.3075C172.26 30.3075 171.646 30.4303 171.031 30.6761C169.579 31.2682 167.926 31.5586 166.083 31.5586C164.239 31.5586 162.664 31.3129 161.368 30.8325C160.687 31.3129 159.894 31.5586 159 31.5586L158.966 31.581ZM157.224 25.9954C157.872 25.7496 158.24 24.8894 158.296 23.426C158.374 21.9626 158.419 19.9406 158.419 17.3489C158.419 14.7571 158.419 13.0368 158.419 12.1878C158.419 11.3387 158.408 10.6461 158.386 10.1211C158.341 8.57946 158.196 7.65225 157.95 7.32828C157.704 7.00431 157.458 6.79206 157.235 6.69152C157.235 11.2382 157.157 13.8299 157 14.4555C156.822 14.9806 156.375 15.3492 155.671 15.5726C156.453 15.8519 156.9 16.1759 157 16.5669C157.157 17.1925 157.235 19.4826 157.235 23.4483V25.9954H157.224ZM162.161 25.7943C162.161 25.7943 162.161 25.8613 162.184 25.8948L162.161 25.7943Z" fill="#fff"/>
<path d="M183.365 31.0559C182.884 31.4134 182.326 31.581 181.711 31.581C181.097 31.581 180.594 31.4246 180.226 31.1006C179.857 30.7766 179.667 30.408 179.667 29.9946C179.667 29.5813 179.734 29.2685 179.868 29.0786C180.248 29.302 180.84 29.4137 181.667 29.4137C182.493 29.4137 183.164 28.8552 183.7 27.7492V18.3431C183.7 17.7286 183.566 17.2706 183.309 16.969C182.918 16.4998 182.248 16.0306 181.309 15.5726C182.259 15.1146 182.862 14.7348 183.108 14.4331C183.499 13.9416 183.7 13.383 183.7 12.7686V4.50193C183.253 3.49652 182.449 2.99382 181.287 2.99382C180.84 2.99382 180.471 3.10553 180.192 3.32895C180.047 3.12787 179.98 2.90445 179.98 2.64751C179.98 2.39057 180.047 2.1448 180.181 1.92138C180.315 1.69796 180.482 1.50804 180.695 1.32931C181.153 0.994169 181.767 0.81543 182.549 0.81543C183.331 0.81543 183.99 1.02768 184.538 1.46336C184.906 1.02768 185.409 0.81543 186.046 0.81543C186.683 0.81543 187.208 1.03885 187.599 1.4857C187.978 1.03885 188.369 0.81543 188.76 0.81543C189.151 0.81543 189.464 0.860115 189.665 0.938314C189.866 1.01651 190.045 1.11705 190.179 1.25111C190.391 1.41868 190.626 1.75381 190.883 2.24534L203.037 24.1409V18.1643C203.037 17.5946 202.914 17.1701 202.669 16.8908C202.289 16.4886 201.618 16.053 200.647 15.5726C201.551 15.1258 202.132 14.7683 202.389 14.5002C202.825 14.0421 203.037 13.5283 203.037 12.9697V4.75887C202.736 4.21148 202.367 3.7758 201.931 3.46301C201.496 3.15021 200.993 2.99382 200.445 2.99382C199.898 2.99382 199.418 3.10553 199.049 3.32895C198.904 3.09436 198.837 2.77039 198.837 2.35706C198.837 1.94372 199.038 1.58624 199.44 1.28462C199.842 0.982998 200.378 0.826601 201.026 0.826601C201.674 0.826601 202.266 0.994169 202.769 1.34048C203.227 1.00534 203.752 0.826601 204.344 0.826601C204.936 0.826601 205.461 1.00534 205.919 1.35165C206.433 0.99417 206.992 0.826601 207.606 0.826601C208.221 0.826601 208.712 0.982998 209.081 1.30696C209.449 1.63093 209.639 1.99958 209.639 2.41291C209.639 2.82625 209.572 3.13904 209.438 3.32895C209.058 3.10553 208.455 2.99382 207.617 2.99382C206.78 2.99382 206.109 3.55238 205.618 4.68067V12.9697C205.618 13.5283 205.741 13.9416 205.975 14.2097C206.366 14.6454 207.048 15.1034 208.008 15.5838C206.947 16.1535 206.321 16.5557 206.109 16.7791C205.785 17.1366 205.618 17.5946 205.618 18.1755L205.975 28.129C206.444 28.9892 207.182 29.4249 208.187 29.4249C208.634 29.4249 209.003 29.3132 209.282 29.0898C209.427 29.2909 209.494 29.5143 209.494 29.7712C209.494 30.0282 209.427 30.2739 209.293 30.4973C209.159 30.7208 208.991 30.9107 208.779 31.0894C208.321 31.4246 207.763 31.6033 207.115 31.6033C206.467 31.6033 205.875 31.4692 205.35 31.2123C204.322 31.8044 203.261 31.7597 202.199 31.0782C201.786 31.4357 201.384 31.6033 201.004 31.6033C200.624 31.6033 200.345 31.5698 200.166 31.5028C199.987 31.4357 199.809 31.324 199.652 31.1453C199.407 30.8995 199.016 30.2739 198.49 29.2797L186.437 8.50123V27.7492C186.973 28.8552 187.654 29.4137 188.47 29.4137C189.285 29.4137 189.889 29.302 190.268 29.0786C190.414 29.3132 190.481 29.6372 190.481 30.0505C190.481 30.4638 190.28 30.8213 189.877 31.1229C189.475 31.4246 188.95 31.581 188.314 31.581C187.677 31.581 187.085 31.4134 186.548 31.0894C186.079 31.4134 185.543 31.581 184.929 31.581C184.314 31.581 183.8 31.4022 183.376 31.0559H183.365ZM198.692 25.9953C198.781 25.8725 198.826 25.6937 198.826 25.4368C198.826 25.1798 198.792 24.8894 198.714 24.5766C198.636 24.2638 198.546 23.9175 198.412 23.5488C198.133 22.8115 197.776 22.0296 197.34 21.1917L189.028 6.69149C188.939 6.83671 188.894 7.09365 188.894 7.47347C188.894 8.28897 189.453 9.69654 190.559 11.7297L198.692 25.9953Z" fill="#fff"/>
<path d="M215.114 24.2303C214.443 22.644 214.03 21.1582 213.874 19.7394C213.717 18.3319 213.483 17.3488 213.159 16.8126C212.835 16.2764 212.388 15.8519 211.796 15.5726C212.935 15.0364 213.606 13.9304 213.807 12.2659C214.008 10.6014 214.466 9.03741 215.192 7.59633C215.907 6.14407 216.823 4.90406 217.94 3.87631C220.275 1.7091 223.09 0.625488 226.386 0.625488C229.681 0.625488 232.574 1.6309 234.797 3.64172C237.11 5.73073 238.473 8.65759 238.875 12.4223C239.042 13.9863 239.713 15.0475 240.875 15.5726C239.735 16.1311 239.065 17.3265 238.853 19.1362C238.64 20.9459 238.227 22.6551 237.613 24.2303C236.998 25.8166 236.171 27.1683 235.144 28.2854C232.988 30.609 230.072 31.7708 226.397 31.7708C222.721 31.7708 219.996 30.609 217.75 28.2854C216.667 27.1571 215.784 25.8054 215.114 24.2303ZM218.242 25.9953C218.443 25.9171 218.532 25.7831 218.532 25.582C218.532 25.2915 218.398 24.8447 218.119 24.2303C217.426 22.644 217.08 19.7618 217.08 15.5614C217.08 12.5005 217.449 9.90877 218.175 7.76389C218.264 7.43993 218.309 7.19416 218.309 7.01542C218.309 6.83668 218.219 6.73614 218.052 6.68029C217.437 7.4511 217.002 8.21074 216.734 8.97038C216.253 10.3556 215.862 12.2324 215.572 14.6007C215.527 14.9358 215.147 15.2598 214.41 15.5614C215.147 15.8854 215.527 16.2205 215.572 16.5556C216.041 20.6108 216.644 23.3142 217.37 24.6659C217.616 25.1463 217.895 25.582 218.208 25.9841L218.242 25.9953ZM224.162 15.5726C222.721 16.2652 222.006 17.3935 222.006 18.9686V24.7888C222.006 26.9225 222.889 28.2854 224.654 28.8887C225.179 29.0674 225.749 29.1679 226.363 29.1679C226.978 29.1679 227.547 29.0786 228.061 28.8887C228.575 28.6987 229.022 28.4306 229.402 28.062C230.184 27.3023 230.575 26.2076 230.575 24.7888V18.9686C230.575 17.4047 229.871 16.2652 228.463 15.5726C229.871 14.9246 230.575 13.8634 230.575 12.4223V7.74155C230.575 6.28929 230.15 5.161 229.301 4.3455C228.508 3.59703 227.514 3.22838 226.341 3.22838C224.341 3.22838 223.012 4.06622 222.341 5.7419C222.118 6.30046 222.006 6.97074 222.006 7.74155V12.4223C222.006 13.8969 222.721 14.947 224.162 15.5726ZM232.373 6.69146C232.742 7.78624 232.921 9.67417 232.921 12.3553C232.921 13.8745 232.854 14.7012 232.72 14.8464C232.586 14.9917 232.463 15.1034 232.329 15.2039C232.094 15.3603 231.837 15.4832 231.569 15.5726C232.351 15.9301 232.764 16.2652 232.809 16.5892C232.943 17.8738 233.01 18.9798 233.01 19.907C233.01 20.8342 232.999 21.5939 232.965 22.1636C232.932 22.7333 232.898 23.2584 232.842 23.7387C232.742 24.7665 232.608 25.5261 232.451 25.9953C233.468 25.6825 234.038 24.1744 234.161 21.471C234.228 19.9517 234.261 18.2648 234.261 16.3992C234.261 14.5336 234.239 13.1372 234.205 12.21C234.161 11.2717 234.105 10.512 234.027 9.90877C233.87 8.52354 233.546 7.56281 233.044 7.02659C232.898 6.8702 232.675 6.75848 232.373 6.69146Z" fill="#fff"/>
<path d="M252.202 30.933C251.52 31.3687 250.76 31.581 249.923 31.581C249.085 31.581 248.325 31.3687 247.655 30.9554C246.985 31.3687 246.37 31.581 245.8 31.581C245.231 31.581 244.761 31.5363 244.404 31.4358C244.047 31.3352 243.723 31.2012 243.443 31.0336C242.885 30.6984 242.605 30.2739 242.605 29.7601C242.605 29.5031 242.672 29.2685 242.818 29.0786C243.108 29.302 243.466 29.4138 243.913 29.4138C245.074 29.4138 245.879 28.9222 246.325 27.928V18.3431C246.325 17.7398 246.203 17.293 245.957 17.0137C245.566 16.5334 244.896 16.053 243.935 15.5838C244.829 15.1816 245.398 14.8242 245.655 14.5114C246.102 13.9975 246.325 13.4278 246.325 12.791V4.5243C245.879 3.51889 245.074 3.01619 243.913 3.01619C243.466 3.01619 243.097 3.1279 242.818 3.35132C242.672 3.15024 242.605 2.92682 242.605 2.66988C242.605 2.41294 242.684 2.17835 242.829 1.95492C242.974 1.7315 243.186 1.54159 243.443 1.38519C244.047 1.01654 244.739 0.837801 245.51 0.837801C246.281 0.837801 247.007 1.05005 247.655 1.48573C248.336 1.05005 249.085 0.837801 249.923 0.837801C250.76 0.837801 251.498 1.05005 252.168 1.46339C253.464 0.915999 254.927 0.636719 256.547 0.636719C258.167 0.636719 259.586 0.82663 260.77 1.20645C261.954 1.58627 263.026 2.11132 263.987 2.79276C265.976 4.20034 267.283 6.06593 267.931 8.37837C268.188 9.28324 268.813 10.0205 269.796 10.5903C268.791 11.1488 268.121 11.9978 267.774 13.1373C267.428 14.2768 266.869 15.3269 266.076 16.2988C265.283 17.2707 264.378 18.0862 263.362 18.7341C261.284 20.0635 259.072 20.7337 256.737 20.7337C255.72 20.7337 254.648 20.5997 253.542 20.3427V27.8274C253.9 28.5871 254.615 29.0786 255.72 29.3132C256.011 29.3802 256.324 29.4138 256.681 29.4138C257.039 29.4138 257.351 29.302 257.642 29.0786C257.787 29.2797 257.854 29.5031 257.854 29.7601C257.854 30.017 257.765 30.2516 257.575 30.475C257.385 30.6984 257.139 30.8884 256.815 31.0448C256.123 31.4134 255.363 31.5921 254.536 31.5921C253.71 31.5921 252.939 31.3799 252.202 30.9442V30.933ZM248.202 25.9954C248.85 25.7496 249.219 24.8894 249.275 23.426C249.353 21.9626 249.398 19.9406 249.398 17.3489C249.398 14.7571 249.398 13.0368 249.398 12.1878C249.398 11.3387 249.386 10.6461 249.364 10.1211C249.319 8.57945 249.174 7.65224 248.928 7.32827C248.683 7.00431 248.437 6.79206 248.213 6.69152C248.213 11.2382 248.135 13.8299 247.979 14.4555C247.8 14.9806 247.353 15.3492 246.649 15.5726C247.431 15.8519 247.878 16.1759 247.979 16.5669C248.135 17.1925 248.213 19.4826 248.213 23.4483V25.9954H248.202ZM253.531 15.2151C253.531 16.1088 253.855 16.8126 254.514 17.3489C255.117 17.8404 255.888 18.0973 256.826 18.0973C258.268 18.0973 259.306 17.5499 259.943 16.4552C260.167 16.0753 260.278 15.6173 260.278 15.0588V6.19998C260.278 5.2616 259.921 4.5243 259.206 3.98808C258.558 3.49655 257.899 3.23961 257.251 3.23961C256.603 3.23961 256.078 3.30664 255.665 3.42952C255.251 3.55241 254.894 3.74232 254.581 3.98808C253.888 4.53547 253.542 5.30629 253.542 6.27818V15.2151H253.531ZM261.552 17.2371C261.853 17.1813 262.166 16.8238 262.479 16.1424C262.792 15.4609 263.038 14.6678 263.205 13.7406C263.373 12.8133 263.574 12.1431 263.82 11.7074C264.065 11.2717 264.468 10.9589 265.015 10.7802C264.11 10.4786 263.54 9.67423 263.306 8.37837C263.071 7.08251 262.792 6.12178 262.468 5.50737C262.144 4.89295 261.842 4.55781 261.541 4.51313C262.021 5.59674 262.267 7.68575 262.267 10.7802C262.267 12.8469 262.166 14.3997 261.954 15.4497C261.742 16.4998 261.608 17.0919 261.541 17.2483L261.552 17.2371Z" fill="#fff"/>
<path d="M277.851 31.581C276.991 31.581 276.22 31.3687 275.561 30.9554C274.891 31.3687 274.276 31.581 273.707 31.581C273.137 31.581 272.668 31.5363 272.31 31.4358C271.953 31.3352 271.629 31.2012 271.35 31.0336C270.791 30.6985 270.512 30.274 270.512 29.7601C270.512 29.5031 270.579 29.2685 270.724 29.0786C271.014 29.3021 271.372 29.4138 271.819 29.4138C272.981 29.4138 273.785 28.9222 274.232 27.928V18.3431C274.232 17.7399 274.109 17.293 273.863 17.0137C273.472 16.5334 272.802 16.053 271.841 15.5838C272.735 15.1816 273.305 14.8242 273.561 14.5114C274.008 13.9975 274.232 13.4278 274.232 12.791V4.52431C273.785 3.5189 272.981 3.01619 271.819 3.01619C271.372 3.01619 271.003 3.1279 270.724 3.35133C270.579 3.15025 270.512 2.92682 270.512 2.66988C270.512 2.41295 270.59 2.17835 270.735 1.95493C270.88 1.7315 271.093 1.54159 271.35 1.38519C271.953 1.01654 272.645 0.837806 273.416 0.837806C274.187 0.837806 274.913 1.05006 275.561 1.48574C276.243 1.05006 277.013 0.837806 277.896 0.837806C278.778 0.837806 279.572 1.09474 280.287 1.59745C281.672 1.08357 283.269 0.837806 285.09 0.837806C286.431 0.837806 287.581 0.97186 288.542 1.2288L290.285 1.69799C290.497 1.75384 290.698 1.77619 290.888 1.77619C291.257 1.77619 291.435 1.51925 291.435 0.994202C291.435 0.860147 291.391 0.636724 291.301 0.32393C291.67 0.256902 292.128 0.223389 292.698 0.223389C293.267 0.223389 293.737 0.413299 294.128 0.781949C294.519 1.1506 294.72 1.68682 294.72 2.3906C294.72 3.09439 294.597 3.59709 294.351 3.93223C294.709 4.45728 294.876 5.09404 294.876 5.84251C294.876 6.59098 294.619 7.22774 294.116 7.73044C294.273 8.12144 294.351 8.50126 294.351 8.88108C294.351 9.2609 294.284 9.59604 294.161 9.89766C294.038 10.1993 293.882 10.4674 293.703 10.6685C293.334 11.0483 292.966 11.2382 292.586 11.2382C292.039 11.2382 291.536 11.1153 291.1 10.8807C291.257 10.5679 291.335 10.0987 291.335 9.48432C291.335 8.04324 290.977 6.78089 290.262 5.69728C289.279 4.21151 287.816 3.46304 285.85 3.46304C284.856 3.46304 283.962 3.70881 283.158 4.18917C282.353 4.66953 281.783 5.36215 281.459 6.26701V13.8523C281.918 14.1427 282.342 14.2879 282.744 14.2879C283.146 14.2879 283.448 14.2879 283.649 14.2656C283.85 14.2433 284.062 14.2209 284.263 14.1874C284.8 14.1092 285.213 14.0087 285.503 13.8746C286.051 13.6177 286.33 12.9697 286.33 11.9532C286.33 11.3834 286.196 10.9366 285.917 10.6238C286.174 10.445 286.509 10.3445 286.9 10.3445C287.771 10.3445 288.408 10.702 288.799 11.4058C288.944 11.6515 289.011 11.9308 289.011 12.2324C289.011 12.5341 288.933 12.9027 288.777 13.3496C289.313 13.964 289.581 14.6901 289.581 15.5391C289.581 16.3881 289.313 17.1143 288.777 17.7287C288.933 18.1755 289.011 18.5777 289.011 18.9352C289.011 19.2926 288.944 19.639 288.799 19.9629C288.654 20.2869 288.475 20.555 288.274 20.7449C287.872 21.1136 287.414 21.2923 286.9 21.2923C286.531 21.2923 286.207 21.1918 285.917 20.9795C286.196 20.5215 286.33 19.9853 286.33 19.3708C286.33 18.1532 285.995 17.4047 285.336 17.1143C284.744 16.8797 284.074 16.7568 283.314 16.7568C282.554 16.7568 281.94 16.8908 281.471 17.1701V26.9673C282.23 28.2966 283.694 28.9669 285.861 28.9669C288.319 28.9669 289.994 28.2073 290.877 26.688C291.905 24.9453 292.43 23.0909 292.43 21.1024C292.43 20.5327 292.374 20.0858 292.273 19.773C292.597 19.449 292.943 19.2815 293.29 19.2815C293.636 19.2815 293.915 19.3262 294.094 19.4267C294.273 19.5272 294.44 19.6501 294.586 19.7842C294.898 20.1417 295.055 20.4991 295.055 20.8566L294.932 21.8173C294.932 22.0631 294.999 22.2642 295.133 22.4206C295.39 22.6999 295.524 22.9568 295.524 23.1914C295.524 23.426 295.446 23.7276 295.289 24.0628C295.591 24.2303 295.859 24.4873 296.105 24.8224C296.351 25.1575 296.462 25.5038 296.462 25.8502C296.462 26.5986 296.15 27.2577 295.524 27.8498C295.803 28.2408 295.937 28.8105 295.937 29.5478C295.937 30.2851 295.725 30.9107 295.301 31.4246C294.876 31.9385 294.329 32.1954 293.647 32.1954C293.279 32.1954 292.899 32.1507 292.508 32.0725C292.564 31.7821 292.586 31.5028 292.586 31.2123C292.586 30.6091 292.307 30.3075 291.759 30.3075C291.145 30.3075 290.531 30.4303 289.916 30.6761C288.464 31.2682 286.811 31.5586 284.967 31.5586C283.124 31.5586 281.549 31.3129 280.253 30.8325C279.572 31.3129 278.778 31.5586 277.885 31.5586L277.851 31.581ZM276.108 25.9954C276.756 25.7496 277.125 24.8894 277.181 23.426C277.259 21.9626 277.304 19.9406 277.304 17.3489C277.304 14.7571 277.304 13.0368 277.304 12.1878C277.304 11.3387 277.293 10.6461 277.27 10.1211C277.226 8.57946 277.08 7.65225 276.835 7.32828C276.589 7.00431 276.343 6.79206 276.12 6.69152C276.12 11.2382 276.041 13.8299 275.885 14.4555C275.706 14.9806 275.259 15.3492 274.556 15.5726C275.338 15.8519 275.785 16.1759 275.885 16.5669C276.041 17.1925 276.12 19.4826 276.12 23.4483V25.9954H276.108ZM281.046 25.7943C281.046 25.7943 281.046 25.8613 281.068 25.8948L281.046 25.7943Z" fill="#fff"/>
<path d="M9.05986 42.4283C8.82526 42.54 8.51246 42.5958 8.12147 42.5958C8.08796 41.7803 7.86453 41.1994 7.4512 40.8643C7.03786 40.5291 6.45696 40.3616 5.68614 40.3616C4.4238 40.3616 3.48542 40.7079 2.85983 41.4005C2.23424 42.0931 1.92144 42.9421 1.92144 43.9475C1.92144 44.7407 2.08902 45.4557 2.42415 46.0924C2.75929 46.7292 3.23965 47.2319 3.85407 47.5894C4.47965 47.958 5.21696 48.1367 6.06597 48.1367C6.57985 48.1367 7.10489 48.0809 7.65228 47.958C8.1885 47.8351 8.69121 47.6676 9.13805 47.4441C9.21625 47.5112 9.28327 47.6005 9.3503 47.7122C9.41733 47.8351 9.45084 47.9468 9.46201 48.0474C8.75823 48.4495 8.08796 48.7512 7.46237 48.9411C6.83678 49.1422 6.12182 49.2315 5.32867 49.2315C4.30091 49.2315 3.3737 49.0193 2.56937 48.6059C1.76505 48.1926 1.13946 47.6117 0.681445 46.8744C0.223425 46.1371 0 45.2881 0 44.3274C0 43.3108 0.256932 42.4394 0.770808 41.7133C1.28468 40.9872 1.96613 40.451 2.81514 40.0823C3.66415 39.7137 4.58019 39.5349 5.56326 39.5349C6.23353 39.5349 6.84795 39.5908 7.42885 39.7137C8.00975 39.8365 8.613 40.0153 9.23859 40.2722C9.11571 40.7526 9.04868 41.4675 9.04868 42.4283H9.05986Z" fill="#fff"/>
<path d="M26.644 49.1421C26.1413 49.1198 25.4934 49.1086 24.7003 49.1086C23.9071 49.1086 23.2033 49.1198 22.7006 49.1421C22.7006 48.7512 22.7341 48.4719 22.8123 48.2931C23.1028 48.2596 23.3038 48.2038 23.4267 48.1367C23.5496 48.0697 23.6055 47.9692 23.6055 47.8239C23.6055 47.7122 23.5384 47.5112 23.4156 47.243L23.0357 46.4275C21.226 46.4275 19.7961 46.4611 18.7572 46.5169L18.5449 47.0084C18.422 47.2989 18.355 47.5223 18.355 47.6899C18.355 48.0474 18.6119 48.2485 19.1258 48.2931C19.204 48.5166 19.2375 48.807 19.2375 49.1421C18.7572 49.1198 18.2321 49.1086 17.6736 49.1086C17.182 49.1086 16.7352 49.1198 16.333 49.1421C16.333 48.8405 16.3665 48.5612 16.4447 48.2931C16.724 48.2485 16.9363 48.1256 17.0815 47.9468C17.2379 47.7681 17.439 47.3994 17.6847 46.8409L20.9244 39.6578C21.159 39.6131 21.4159 39.5796 21.684 39.5796L25.1583 46.785C25.4375 47.3659 25.6721 47.7569 25.8621 47.958C26.052 48.1591 26.2754 48.2708 26.5323 48.2931C26.5994 48.483 26.6217 48.7623 26.6217 49.1421H26.644ZM22.6671 45.6456L21.5388 43.2661C21.2148 42.5958 20.9914 42.0708 20.8574 41.6798C20.7568 41.9926 20.6339 42.3054 20.4887 42.6182C20.3435 42.931 20.2541 43.1209 20.2206 43.1879L19.1482 45.6456H22.6783H22.6671Z" fill="#fff"/>
<path d="M35.692 49.0303C35.1334 48.8962 34.5302 48.6839 33.8711 48.4047C34.0051 47.5668 34.061 46.8295 34.0163 46.2151C34.2956 46.1257 34.6307 46.0811 35.0329 46.0811C35.0552 46.863 35.301 47.4216 35.7814 47.7791C36.2506 48.1254 36.9208 48.3041 37.7698 48.3041C38.496 48.3041 39.0769 48.1924 39.5014 47.969C39.9259 47.7456 40.1381 47.4439 40.1381 47.0641C40.1381 46.796 40.0376 46.5726 39.8253 46.3715C39.6131 46.1816 39.3673 46.014 39.0657 45.88C38.7752 45.7459 38.3396 45.5784 37.7698 45.3773C36.9879 45.1092 36.3623 44.8634 35.8931 44.6288C35.4239 44.3942 35.0106 44.0814 34.6642 43.6681C34.3179 43.2547 34.1504 42.752 34.1504 42.1264C34.1504 41.2886 34.4632 40.6407 35.0999 40.205C35.7367 39.7693 36.608 39.5459 37.714 39.5459C38.3061 39.5459 38.8981 39.6018 39.479 39.7135C40.0599 39.8252 40.518 39.9704 40.8531 40.1491C40.8419 40.2832 40.8308 40.4954 40.8308 40.7859C40.8308 41.3556 40.8643 41.8025 40.9425 42.1264C40.6744 42.2605 40.328 42.3275 39.9035 42.3275C39.7248 41.6126 39.4455 41.1099 39.0434 40.8306C38.6524 40.5513 38.1608 40.4061 37.5799 40.4061C36.999 40.4061 36.5745 40.4954 36.2282 40.6854C35.8819 40.8753 35.7143 41.1546 35.7143 41.512C35.7143 41.9254 35.9154 42.2605 36.3176 42.5174C36.7197 42.7632 37.3453 43.0425 38.2055 43.3441C38.9317 43.5899 39.5349 43.8356 39.9929 44.0591C40.4509 44.2825 40.8531 44.5953 41.1771 44.9751C41.501 45.3549 41.6686 45.8353 41.6686 46.4162C41.6686 47.2429 41.3335 47.9243 40.652 48.4382C39.9706 48.9521 38.9428 49.209 37.5576 49.209C36.865 49.209 36.2394 49.142 35.6808 48.9967L35.692 49.0303Z" fill="#fff"/>
<path d="M58.939 49.1421C58.4363 49.1198 57.7883 49.1086 56.9952 49.1086C56.202 49.1086 55.4982 49.1198 54.9955 49.1421C54.9955 48.7512 55.029 48.4719 55.1072 48.2931C55.3977 48.2596 55.5988 48.2038 55.7216 48.1367C55.8445 48.0697 55.9004 47.9692 55.9004 47.8239C55.9004 47.7122 55.8334 47.5112 55.7105 47.243L55.3307 46.4275C53.5209 46.4275 52.091 46.4611 51.0521 46.5169L50.8398 47.0084C50.7169 47.2989 50.6499 47.5223 50.6499 47.6899C50.6499 48.0474 50.9069 48.2485 51.4207 48.2931C51.4989 48.5166 51.5324 48.807 51.5324 49.1421C51.0521 49.1198 50.527 49.1086 49.9685 49.1086C49.4769 49.1086 49.0301 49.1198 48.6279 49.1421C48.6279 48.8405 48.6614 48.5612 48.7396 48.2931C49.0189 48.2485 49.2312 48.1256 49.3764 47.9468C49.5328 47.7681 49.7339 47.3994 49.9796 46.8409L53.2193 39.6578C53.4539 39.6131 53.7108 39.5796 53.9789 39.5796L57.4532 46.785C57.7325 47.3659 57.9671 47.7569 58.157 47.958C58.3469 48.1591 58.5703 48.2708 58.8272 48.2931C58.8943 48.483 58.9166 48.7623 58.9166 49.1421H58.939ZM54.962 45.6456L53.8337 43.2661C53.5097 42.5958 53.2863 42.0708 53.1523 41.6798C53.0517 41.9926 52.9288 42.3054 52.7836 42.6182C52.6384 42.931 52.549 43.1209 52.5155 43.1879L51.4431 45.6456H54.9732H54.962Z" fill="#fff"/>
<path d="M74.5231 48.2929C74.8247 48.2706 75.0593 48.2147 75.2269 48.1477C75.3944 48.0695 75.5061 47.9355 75.5732 47.7344C75.6402 47.5333 75.6737 47.2317 75.6737 46.8295V41.8695C75.6737 41.5008 75.6402 41.2327 75.5732 41.0428C75.5061 40.8529 75.3944 40.7189 75.238 40.6407C75.0816 40.5625 74.8471 40.5178 74.5343 40.4954C74.4896 40.2944 74.4561 40.0151 74.4561 39.6464C75.1598 39.6688 75.9753 39.6799 76.8914 39.6799C77.3047 39.6799 77.6175 39.6799 77.8409 39.6576L78.8464 39.6353C80.6673 39.6353 82.1754 39.9592 83.3483 40.596C84.5213 41.2327 85.1134 42.4169 85.1134 44.1484C85.1134 46.1146 84.4431 47.4328 83.1137 48.103C81.7844 48.7733 80.3545 49.1084 78.8352 49.1084C77.0254 49.1084 75.562 49.1196 74.4561 49.142C74.4561 48.751 74.4896 48.4717 74.5454 48.2929H74.5231ZM81.17 47.9466C81.7956 47.7344 82.2871 47.3546 82.6557 46.7848C83.0244 46.2151 83.2143 45.4219 83.2143 44.383C83.2143 42.9866 82.7786 41.9812 81.9073 41.3668C81.0359 40.7524 79.9188 40.4396 78.5782 40.4396C78.0644 40.4396 77.6734 40.4731 77.4053 40.5513V46.7848C77.4053 47.187 77.4388 47.4886 77.517 47.7009C77.5952 47.9131 77.7292 48.0472 77.9415 48.1365C78.1537 48.2259 78.4554 48.2594 78.8799 48.2594C79.7847 48.2594 80.5555 48.1589 81.17 47.9466Z" fill="#fff"/>
<path d="M93.9384 39.6912C93.7149 40.2051 93.3575 40.7413 92.8883 41.2999C92.7542 41.2999 92.609 41.2775 92.4638 41.2329C92.3185 41.1882 92.2068 41.1323 92.1286 41.0541C92.4414 40.6296 92.6425 40.2945 92.7319 40.0599C92.8212 39.8253 92.8659 39.546 92.8659 39.222C92.8659 38.6747 92.5755 38.3507 91.9834 38.2837C91.9834 38.1384 91.9946 37.9374 92.0169 37.7028C92.0393 37.4682 92.0839 37.2894 92.1286 37.1442C92.7319 37.0213 93.2346 36.8314 93.6367 36.5745C94.0612 36.742 94.2735 37.1889 94.2735 37.9374C94.2735 38.5965 94.1618 39.1774 93.9384 39.6912Z" fill="#fff"/>
<path d="M111.277 49.1421C110.774 49.1198 110.126 49.1086 109.333 49.1086C108.54 49.1086 107.836 49.1198 107.333 49.1421C107.333 48.7512 107.367 48.4719 107.445 48.2931C107.736 48.2596 107.937 48.2038 108.06 48.1367C108.182 48.0697 108.238 47.9692 108.238 47.8239C108.238 47.7122 108.171 47.5112 108.048 47.243L107.669 46.4275C105.859 46.4275 104.429 46.4611 103.39 46.5169L103.178 47.0084C103.055 47.2989 102.988 47.5223 102.988 47.6899C102.988 48.0474 103.245 48.2485 103.759 48.2931C103.837 48.5166 103.87 48.807 103.87 49.1421C103.39 49.1198 102.865 49.1086 102.306 49.1086C101.815 49.1086 101.368 49.1198 100.966 49.1421C100.966 48.8405 100.999 48.5612 101.078 48.2931C101.357 48.2485 101.569 48.1256 101.714 47.9468C101.871 47.7681 102.072 47.3994 102.318 46.8409L105.557 39.6578C105.792 39.6131 106.049 39.5796 106.317 39.5796L109.791 46.785C110.07 47.3659 110.305 47.7569 110.495 47.958C110.685 48.1591 110.908 48.2708 111.165 48.2931C111.232 48.483 111.255 48.7623 111.255 49.1421H111.277ZM107.3 45.6456L106.172 43.2661C105.848 42.5958 105.624 42.0708 105.49 41.6798C105.39 41.9926 105.267 42.3054 105.122 42.6182C104.976 42.931 104.887 43.1209 104.853 43.1879L103.781 45.6456H107.311H107.3Z" fill="#fff"/>
<path d="M120.326 49.0303C119.767 48.8962 119.164 48.6839 118.505 48.4047C118.639 47.5668 118.695 46.8295 118.65 46.2151C118.929 46.1257 119.265 46.0811 119.667 46.0811C119.689 46.863 119.935 47.4216 120.415 47.7791C120.884 48.1254 121.555 48.3041 122.404 48.3041C123.13 48.3041 123.711 48.1924 124.135 47.969C124.56 47.7456 124.772 47.4439 124.772 47.0641C124.772 46.796 124.671 46.5726 124.459 46.3715C124.247 46.1816 124.001 46.014 123.699 45.88C123.409 45.7459 122.973 45.5784 122.404 45.3773C121.622 45.1092 120.996 44.8634 120.527 44.6288C120.058 44.3942 119.644 44.0814 119.298 43.6681C118.952 43.2547 118.784 42.752 118.784 42.1264C118.784 41.2886 119.097 40.6407 119.734 40.205C120.37 39.7693 121.242 39.5459 122.348 39.5459C122.94 39.5459 123.532 39.6018 124.113 39.7135C124.694 39.8252 125.152 39.9704 125.487 40.1491C125.476 40.2832 125.465 40.4954 125.465 40.7859C125.465 41.3556 125.498 41.8025 125.576 42.1264C125.308 42.2605 124.962 42.3275 124.537 42.3275C124.359 41.6126 124.079 41.1099 123.677 40.8306C123.286 40.5513 122.795 40.4061 122.214 40.4061C121.633 40.4061 121.208 40.4954 120.862 40.6854C120.516 40.8753 120.348 41.1546 120.348 41.512C120.348 41.9254 120.549 42.2605 120.951 42.5174C121.354 42.7632 121.979 43.0425 122.839 43.3441C123.565 43.5899 124.169 43.8356 124.627 44.0591C125.085 44.2825 125.487 44.5953 125.811 44.9751C126.135 45.3549 126.302 45.8353 126.302 46.4162C126.302 47.2429 125.967 47.9243 125.286 48.4382C124.604 48.9521 123.577 49.209 122.191 49.209C121.499 49.209 120.873 49.142 120.315 48.9967L120.326 49.0303Z" fill="#fff"/>
<path d="M142.355 42.0817C142.087 42.1935 141.785 42.2493 141.428 42.2493C141.406 41.6461 141.238 41.1992 140.948 40.9088C140.646 40.6183 140.188 40.4731 139.562 40.4731H138.736V46.9412C138.736 47.3322 138.769 47.6227 138.836 47.8014C138.903 47.9802 139.037 48.1142 139.216 48.1924C139.395 48.2706 139.674 48.3153 140.054 48.3376C140.121 48.494 140.143 48.751 140.143 49.1308C139.216 49.1084 138.456 49.0973 137.864 49.0973C137.138 49.0973 136.356 49.1084 135.529 49.1308C135.529 48.751 135.563 48.494 135.619 48.3376C135.999 48.3153 136.278 48.2594 136.479 48.1924C136.68 48.1142 136.814 47.9802 136.881 47.8014C136.959 47.6115 136.993 47.3322 136.993 46.9524V40.4843H136.222C135.719 40.4843 135.328 40.5513 135.06 40.6853C134.792 40.8194 134.591 40.9981 134.468 41.2439C134.345 41.4897 134.234 41.8248 134.144 42.2605C133.742 42.2605 133.452 42.2046 133.262 42.0929C133.452 41.2327 133.541 40.4172 133.541 39.6353C134.189 39.6576 135.63 39.6688 137.864 39.6688C140.099 39.6688 141.584 39.6576 142.221 39.6353C142.188 40.3167 142.221 41.1322 142.355 42.0929V42.0817Z" fill="#fff"/>
<path d="M157.905 46.8407C157.682 47.4328 157.514 48.1924 157.391 49.1196L153.749 49.0973C151.939 49.0973 150.476 49.1084 149.37 49.1308C149.37 48.7398 149.404 48.4605 149.459 48.2818C149.772 48.2594 150.007 48.2036 150.163 48.1365C150.32 48.0583 150.431 47.9243 150.498 47.7232C150.565 47.5221 150.588 47.2205 150.588 46.8183V41.8583C150.588 41.4897 150.554 41.2216 150.487 41.0317C150.42 40.8417 150.309 40.7077 150.152 40.6295C149.996 40.5513 149.761 40.5066 149.459 40.4843C149.392 40.2944 149.37 40.0151 149.37 39.6353C150.275 39.6576 151.258 39.6688 152.33 39.6688C154.643 39.6688 156.196 39.6576 156.967 39.6353C157.101 40.8194 157.223 41.6014 157.324 41.97C157.112 42.1041 156.832 42.1823 156.475 42.1823C156.419 41.6572 156.207 41.2439 155.827 40.9423C155.447 40.6407 154.766 40.4843 153.794 40.4843H152.319V43.9585H153.258C153.928 43.9585 154.386 43.8803 154.643 43.7351C154.9 43.5899 155.034 43.3106 155.045 42.9084C155.324 42.8191 155.615 42.7744 155.916 42.7744C155.894 43.0872 155.883 43.6122 155.883 44.3607C155.883 45.165 155.894 45.7124 155.916 46.0028C155.581 46.0028 155.302 45.9693 155.09 45.8911C155.056 45.4778 154.9 45.1873 154.643 45.0421C154.386 44.8969 153.928 44.8187 153.258 44.8187H152.319V46.796C152.319 47.1982 152.364 47.4998 152.442 47.712C152.52 47.9243 152.666 48.0583 152.878 48.1477C153.09 48.2371 153.392 48.2706 153.816 48.2706H153.928C154.654 48.2706 155.224 48.2036 155.615 48.0807C156.017 47.9578 156.307 47.7679 156.497 47.5221C156.698 47.2764 156.877 46.9189 157.056 46.4385C157.391 46.5056 157.67 46.6396 157.883 46.8519L157.905 46.8407Z" fill="#fff"/>
</svg>
